<?xml version="1.0" encoding="UTF-8" standalone="no"?>
<!-- Created with Inkscape (http://www.inkscape.org/) -->

<svg
   xmlns:dc="http://purl.org/dc/elements/1.1/"
   xmlns:cc="http://creativecommons.org/ns#"
   xmlns:rdf="http://www.w3.org/1999/02/22-rdf-syntax-ns#"
   xmlns:svg="http://www.w3.org/2000/svg"
   xmlns="http://www.w3.org/2000/svg"
   xmlns:sodipodi="http://sodipodi.sourceforge.net/DTD/sodipodi-0.dtd"
   xmlns:inkscape="http://www.inkscape.org/namespaces/inkscape"
   width="210mm"
   height="297mm"
   viewBox="0 0 744.09448819 1052.3622047"
   id="svg3442"
   version="1.1"
   inkscape:version="0.91 r13725"
   sodipodi:docname="vector.svg">
  <defs
     id="defs3444" />
  <sodipodi:namedview
     id="base"
     pagecolor="#ffffff"
     bordercolor="#666666"
     borderopacity="1.0"
     inkscape:pageopacity="0.0"
     inkscape:pageshadow="2"
     inkscape:zoom="0.98994949"
     inkscape:cx="-2325.3191"
     inkscape:cy="793.08075"
     inkscape:document-units="px"
     inkscape:current-layer="layer1"
     showgrid="false"
     inkscape:window-width="2495"
     inkscape:window-height="1576"
     inkscape:window-x="65"
     inkscape:window-y="24"
     inkscape:window-maximized="1" />
  <metadata
     id="metadata3447">
    <rdf:RDF>
      <cc:Work
         rdf:about="">
        <dc:format>image/svg+xml</dc:format>
        <dc:type
           rdf:resource="http://purl.org/dc/dcmitype/StillImage" />
        <dc:title></dc:title>
      </cc:Work>
    </rdf:RDF>
  </metadata>
  <g
     inkscape:label="Layer 1"
     inkscape:groupmode="layer"
     id="layer1">
    <path
       style="fill:none;fill-rule:evenodd;stroke:#000000;stroke-width:3.9999578px;stroke-linecap:butt;stroke-linejoin:miter;stroke-opacity:1"
       d="m -436.79,241.52577 c 18.3341,7.21547 63.67369,-6.63525 83.2656,-0.51041 19.5919,6.12485 54.85734,16.33294 74.44925,39.30112 19.5919,22.96819 35.47504,63.41785 40.1634,80.13346 4.86735,17.35374 19.51027,44.50919 47.91853,52.16524 28.40826,7.65607 32.89808,12.65607 52.97978,0.40637 20.08171,-12.24969 34.93932,-19.14085 40.816887,-50.7859 5.87757,-31.64506 11.6735,-126.47899 -2.04083,-159.14485 C -112.95212,170.42495 -148.78899,99.123041 -193.36057,76.665259 -237.93216,54.20748 -311.20789,36.597835 -346.47332,42.212277 c -35.26543,5.614456 -102.44888,48.111514 -119.51069,66.504393 -44.40858,66.101 -12.55008,115.67532 29.19401,132.8091 z"
       id="path3405"
       inkscape:connector-curvature="0"
       sodipodi:nodetypes="cssssssssscc" />
    <path
       style="fill:none;fill-rule:evenodd;stroke:#000000;stroke-width:3.79163432px;stroke-linecap:butt;stroke-linejoin:miter;stroke-opacity:1"
       d="m -372.74593,83.428006 c 0,0 11.76931,7.192553 16.2911,18.763174 9.17668,23.48182 11.30605,49.38387 15.72477,31.9311 6.59605,-26.05258 18.00012,-75.359217 30.31274,-66.164191 12.31261,9.195038 28.25476,14.16295 30.89317,44.302221 2.63842,30.13926 3.34814,64.541 13.46207,43.08592 10.11393,-21.45507 6.21441,-15.36038 7.53362,-37.32629 1.31921,-21.965909 -2.19868,-50.572685 13.19208,-20.944239 15.39076,29.628429 21.54707,23.498409 37.8173,25.541749 16.27024,2.04334 18.46892,-4.59751 21.10734,26.56342 2.63841,31.16094 36.93782,31.16094 46.61202,32.18262 9.6742,1.02167 12.31261,13.79254 3.95763,20.43339 -8.35499,6.64087 -74.97844,6.28372 -49.47374,17.52209 25.50469,11.23838 59.58766,-6.79454 45.51611,16.70387 -14.07156,23.49841 -27.70337,2.04334 -43.97361,14.30339 -16.27023,12.26003 -5.27683,22.47674 13.19209,27.58509 18.46891,5.10835 46.17228,4.59751 40.89545,18.9009 -5.27684,14.30339 -18.90865,26.56343 -35.61862,20.4334 -16.70998,-6.13001 -39.57625,5.10835 -20.22786,13.79256 19.34838,8.6842 32.10073,25.54176 25.94443,36.78013 -6.15631,11.23837 -9.6742,57.21353 -22.42655,30.65011 -12.75234,-26.56344 -34.73915,-32.69345 -43.97361,-55.1702 -9.23445,-22.47675 3.07815,-30.65011 -7.91524,-42.91016 -10.9934,-12.26003 -37.8173,-14.81422 -24.18549,-25.03092 13.63183,-10.2167 7.864,-22.32305 1.26796,-32.53976 -6.59604,-10.21669 27.26362,-19.92257 31.22125,-33.20427 3.95763,-13.28172 23.79701,-24.67378 10.16519,-35.91215 -13.63182,-11.23837 -20.22786,-10.72753 -38.69677,16.34672 -18.46892,27.07426 -37.37757,62.83272 -47.93124,41.37765 -10.55367,-21.45508 -21.98681,-3.06501 -8.79472,-37.29097 13.19208,-34.22594 6.59604,-44.44265 -9.23446,-22.47674 -15.8305,21.96591 -8.35499,27.07425 -25.50469,39.3343 -17.14972,12.26004 -18.90866,5.10835 -25.94444,-15.32506 -7.03577,-20.4334 -8.49112,-52.9864 -15.08715,-21.82545 -6.59604,31.16093 5.8527,57.58392 -8.65859,42.25886 -14.5113,-15.32506 -39.13652,-35.75846 -46.61203,-55.68102 -7.47551,-19.92257 29.02259,-3.57585 28.14312,-16.34673 -0.87948,-12.77088 -4.83711,-56.191861 8.35498,-60.789375 13.19208,-4.597514 32.65439,0.144861 32.65439,0.144861 z"
       id="path3407"
       inkscape:connector-curvature="0"
       sodipodi:nodetypes="csssssssssssssssssssssssssssssssssssssc" />
    <path
       style="fill:none;fill-rule:evenodd;stroke:#000000;stroke-width:3.9999578px;stroke-linecap:butt;stroke-linejoin:miter;stroke-opacity:1"
       d="m -446.07128,247.95568 c 59.04838,16.50119 66.17618,-0.57179 85.7656,5.56103 43.52047,13.62485 45.92876,5.61865 65.52067,28.58683 19.59191,22.96819 38.86749,64.56543 44.44912,83.34774 4.9454,16.64138 17.72455,54.15205 46.13281,61.8081 28.40826,7.6561 61.46952,14.44181 81.90836,-3.16508 17.82204,-15.35267 34.939317,-21.99797 40.816867,-53.64302 5.8776,-31.64506 13.10211,-145.05041 -0.61224,-177.71627 C -95.804843,160.06915 -154.85598,78.052957 -199.42756,55.595177 -243.99915,33.137401 -319.41774,24.456321 -354.68317,30.070771 c -35.26543,5.61445 -109.94888,54.540084 -127.01069,72.932959 -44.40858,66.101 -6.12151,127.81818 35.62258,144.95195 z"
       id="path3405-6"
       inkscape:connector-curvature="0"
       sodipodi:nodetypes="cssssssssscc" />
    <path
       style="fill:none;fill-rule:evenodd;stroke:#000000;stroke-width:3.82108665px;stroke-linecap:butt;stroke-linejoin:miter;stroke-opacity:1"
       d="m -374.56138,101.50539 c 0,0 32.20375,81.76894 38.79919,55.30761 6.59542,-26.46133 19.78454,-77.753064 32.09603,-68.413774 12.31148,9.339305 8.96604,5.619085 11.60422,36.231214 2.63817,30.61213 18.34894,66.55365 28.46194,44.76196 10.113,-21.79168 12.99883,-12.83535 14.31791,-35.1459 1.31909,-22.31054 -9.34132,-47.794696 6.04802,-17.70141 15.38934,30.09328 21.54508,23.86709 37.81382,25.94249 16.26874,2.07539 13.11007,-7.16965 15.74825,24.48018 2.63817,31.64983 32.29157,18.43554 41.96487,19.47325 9.67331,1.0377 8.26561,13.33897 -2.4713,13.25398 -131.27341,20.23461 10.28914,24.64546 -24.67156,36.19152 -26.61609,11.55993 -7.17427,2.18529 -22.89813,8.09921 -19.17594,7.21229 4.00937,39.97225 22.47659,45.16074 18.46721,5.1885 36.52518,-3.18749 31.24883,11.3403 -5.27635,14.5278 -15.69263,10.90876 -32.40106,4.68256 -16.70843,-6.22619 -39.92975,22.33135 -20.58314,31.15181 19.3466,8.82045 31.38349,22.7282 25.22776,34.1429 -6.15574,11.41469 1.75526,31.32545 -10.99591,4.34527 -12.75118,-26.9802 -20.0931,-14.27782 -29.32671,-37.10721 -9.2336,-22.82939 -2.63642,-27.20242 -13.6288,-39.65481 -10.99238,-12.45239 -33.5281,-17.90379 -19.89754,-28.28078 13.63057,-10.377 6.79098,-16.59625 0.19555,-26.97325 -6.59543,-10.37699 27.26112,-10.94942 31.21838,-24.43951 3.95727,-13.4901 20.58139,-37.92364 6.95083,-49.33833 -13.63057,-11.41469 -28.79743,-21.25298 -47.26464,6.24605 -18.46722,27.49903 -39.6601,51.50879 -42.21254,44.16968 -3.81676,-10.97443 -6.62765,-8.82738 -0.57963,-28.59032 10.88048,-35.55383 -9.02422,-49.86192 -27.80504,-29.97224 -19.04333,20.16768 -4.06851,24.64188 -21.21663,37.09428 -17.14814,12.45239 -15.33549,-0.16864 -22.37062,-20.92263 -7.03513,-20.75399 -17.06206,-56.83737 -23.65749,-25.18752 -6.59543,31.64982 4.78103,59.007 -9.72893,43.44151 -14.50996,-15.5655 -19.84719,-10.24806 -27.32201,-30.48318 -7.47484,-20.23515 23.66277,3.5109 22.78337,-9.46035 -0.87939,-12.97124 -3.05094,-57.787749 10.13993,-62.457399 13.19087,-4.669649 21.93619,8.612099 21.93619,8.612099 z"
       id="path3407-7"
       inkscape:connector-curvature="0"
       sodipodi:nodetypes="csssssssssccssssssssssssssssssssssssc" />
    <path
       style="fill:none;fill-rule:evenodd;stroke:#000000;stroke-width:1px;stroke-linecap:butt;stroke-linejoin:miter;stroke-opacity:1"
       d="M 198.57143,175.93363 140.71429,98.790775 c 0,0 -3.92858,9.107145 -1.96429,14.285715 1.96429,5.17857 34.10714,65.71428 34.10714,65.71428 0,0 20.35715,17.85715 17.5,21.78572 -2.85714,3.92857 -0.71428,11.07143 -9.10714,5.89286 -8.39286,-5.17858 -45.71429,-32.32143 -45.71429,-32.32143 l -10.71428,-10.35715 c 0,0 -6.25,6.78572 5,23.57143 11.25,16.78572 46.07143,61.78572 46.07143,61.78572 l 66.25,23.21428 121.07143,17.5 -6.42858,13.92857 -69.28571,2.5 103.92857,14.64286 80.35715,-17.14286 17.5,-17.14285 -78.92858,18.57143 -12.14285,-9.28572 0.35714,-9.28571 22.5,2.5 57.5,-27.85715 -0.35714,-26.78571 30.71428,-27.14286 8.57143,-17.5 c 1.16257,-10.22841 -3.64645,-10.00521 1.78571,-25.35714 l -32.49999,47.5 -129.64286,30 4.64285,4.64286 80,-3.92857 L 445,251.64792 427.85714,263.79077 330,272.00506 l -66.42857,-4.64286 -49.28572,-35 -7.5,-17.5 11.07143,-0.71428 48.57143,25 52.85714,6.78571 6.07143,-3.57143 z"
       id="path3542"
       inkscape:connector-curvature="0"
       sodipodi:nodetypes="ccscssccscccccccccccccccccccccccccccccccc" />
    <path
       style="fill:none;fill-rule:evenodd;stroke:#000000;stroke-width:1px;stroke-linecap:butt;stroke-linejoin:miter;stroke-opacity:1"
       d="m 98.214286,44.50506 -8.571429,-8.571428 -1.785714,9.285714 0,5.714286 c 0,0 -9.285714,19.285714 -11.071429,20 -1.785714,0.714285 -10,8.928571 -10,8.928571 l -5.714285,19.642857 6.785714,65.35714 33.214287,69.64286 69.64286,57.5 -77.500004,-45 2.142857,13.21429 102.499997,71.42857 71.42857,14.28571 L 237.5,321.64792 199.28571,309.8622 197.5,305.21935 l 15.35714,-3.57143 38.92857,3.92857 0.71429,-7.14286 -3.57143,-3.21428 2.85714,-4.28572 -29.64285,-9.64285 L 161.42857,260.21935 109.64286,195.93363 85,124.50506 l -0.357143,-30 c 0,0 3.928572,-12.142857 7.142857,0.357143 C 95,107.3622 98.571429,128.43363 98.571429,128.43363 l 17.857141,26.07143 8.21429,0 -2.85715,-21.78571 z"
       id="path3544"
       inkscape:connector-curvature="0"
       sodipodi:nodetypes="ccccsccccccccccccccccccccccsccccc" />
    <path
       style="fill:none;fill-rule:evenodd;stroke:#000000;stroke-width:1px;stroke-linecap:butt;stroke-linejoin:miter;stroke-opacity:1"
       d="m 298.92857,336.29078 c 60.26051,5.80766 116.5937,-4.10593 172.14286,-17.14286 l -10,22.14286 -34.28572,10.35714 -64.28571,5 -68.92857,-11.78572 z"
       id="path3546"
       inkscape:connector-curvature="0"
       sodipodi:nodetypes="ccccccc" />
    <path
       style="fill:none;fill-rule:evenodd;stroke:#000000;stroke-width:1px;stroke-linecap:butt;stroke-linejoin:miter;stroke-opacity:1"
       d="M 46.785714,136.29077 43.928571,147.71935 69.285714,223.43363 80,234.50506 55.357143,153.79077 l -3.214286,-15 z"
       id="path3548"
       inkscape:connector-curvature="0" />
    <path
       style="fill:none;fill-rule:evenodd;stroke:#000000;stroke-width:1px;stroke-linecap:butt;stroke-linejoin:miter;stroke-opacity:1"
       d="m 149.28571,97.00506 53.57143,73.92857 126.07143,67.14286 4.28572,2.5 -9.28572,10.35714 -59.28571,-3.92857 -43.92857,-25.71429 -4.64286,1.78572 5.71428,8.57143 42.5,27.14285 64.28572,5 95.35714,-7.5 11.78572,-6.07142 -78.21429,2.14285 -7.14286,-15.71428 132.14286,-30 37.14286,-55.35715 c 0,0 5.71428,-15 5.35714,-6.07142 -0.35714,8.92857 -3.21428,51.78571 -3.21428,51.78571 L 505,223.07649 l -22.85714,15.71428 2.5,25.71429 -66.42857,32.14286 -13.92858,-3.21429 6.42858,6.07143 75,-17.85714 13.21428,-1.42857 -19.64285,30 -87.85715,16.78571 -112.85714,-15 3.21428,-13.57143 L 355,297.71935 240,278.43363 171.42857,254.8622 l -52.5,-73.92857 -1.42857,-17.14286 11.42857,-5.35714 54.28572,43.21429 c 0,0 -2.5,-7.14286 -13.21429,-18.21429 -10.71429,-11.07143 -32.85714,-59.64286 -32.85714,-59.64286 0,0 -6.07143,-24.285714 -1.42857,-27.857134 4.64285,-3.571433 13.57142,1.071424 13.57142,1.071424 z"
       id="path3550"
       inkscape:connector-curvature="0"
       sodipodi:nodetypes="cccccccccccccccccsccccccccccccccccccccscsc" />
    <path
       style="fill:none;fill-rule:evenodd;stroke:#000000;stroke-width:1px;stroke-linecap:butt;stroke-linejoin:miter;stroke-opacity:1"
       d="M 41.428571,130.93363 40,149.14792 l 25,77.5 15.357143,14.64285 3.214286,1.42858 2.5,-5.71429 -24.642857,-79.28571 -3.571429,-21.42858 z"
       id="path3552"
       inkscape:connector-curvature="0" />
    <path
       style="fill:none;fill-rule:evenodd;stroke:#000000;stroke-width:1px;stroke-linecap:butt;stroke-linejoin:miter;stroke-opacity:1"
       d="m 91.428572,44.862203 -1.071429,10.357143 c 0,0 -6.428571,18.214286 -10.357143,20.357143 -3.928571,2.142857 -10,27.857141 -10,27.857141 l 3.928572,58.21429 31.071428,65 67.85714,62.5 1.78572,10.71428 -73.21429,-42.14285 96.42857,67.14285 44.64286,11.42858 -11.07143,-10.71429 -40.35714,-12.85714 0,-12.85715 12.14286,-4.64285 43.21428,3.21428 -30.35714,-8.57143 -58.92857,-23.21429 -56.42858,-63.21428 -22.857137,-79.28571 c 0,0 1.071429,-37.500003 3.214286,-37.500003 2.142857,0 16.071428,-11.785714 16.428571,1.428572 0.357143,13.214281 6.42857,40.714281 6.42857,40.714281 L 115.35714,144.8622 117.5,133.79077 96.785714,57.00506 Z"
       id="path3554"
       inkscape:connector-curvature="0"
       sodipodi:nodetypes="ccscccccccccccccccccssccccc" />
    <path
       style="fill:none;fill-rule:evenodd;stroke:#000000;stroke-width:1px;stroke-linecap:butt;stroke-linejoin:miter;stroke-opacity:1"
       d="m 461.07143,325.93363 -82.14286,16.42857 -72.85714,-1.07142 56.42857,9.28571 62.5,-3.21429 30,-8.57142 z"
       id="path3556"
       inkscape:connector-curvature="0" />
  </g>
</svg>
